<mxfile host="app.diagrams.net" agent="Mozilla/5.0 (Windows NT 10.0; Win64; x64) AppleWebKit/537.36 (KHTML, like Gecko) Chrome/130.0.0.0 Safari/537.36" version="24.8.4">
  <diagram id="gTmY0eY7MNqRI-HBbe0g" name="第 1 页">
    <mxGraphModel dx="1050" dy="618" grid="1" gridSize="10" guides="1" tooltips="1" connect="1" arrows="1" fold="1" page="1" pageScale="1" pageWidth="827" pageHeight="1169" math="0" shadow="0">
      <root>
        <mxCell id="0" />
        <mxCell id="1" parent="0" />
        <mxCell id="xnrFFT-Z6RItZ-fGzRB7-1" value="基于nurbs构建圆弧：&lt;br&gt;函数名字：MakeCircle1&lt;div&gt;degree设置为2，基于圆弧的弧度选择控制点个数，如果小于2pi/3,控制点个数设置为3，如果大于2pi/3小于4pi/3，控制点个数为5，如果大于4pi/3，控制点个数设置为7.&lt;/div&gt;&lt;div&gt;节点数量 =&amp;nbsp; 控制点个数+degree+1&lt;/div&gt;&lt;div&gt;准均匀有理b样条，设置前后degree+1个节向量为0&lt;/div&gt;&lt;div&gt;假设五个控制点的情况，节点为8个，前三个为0，后三个为0，中间两个就是0.5&lt;/div&gt;&lt;div&gt;假设7个控制点的情况，节点个数就是10个，前三个后三个节点为0，中间四个分别为1/3，1/3，2/3，2/3&lt;/div&gt;&lt;div&gt;&lt;br&gt;&lt;/div&gt;&lt;div&gt;&lt;br&gt;&lt;/div&gt;&lt;div&gt;圆锥曲面：uv空间，u空间是直线，V空间为曲线，节向量为 0，0，0，0.25，0.25，0.5,0.5,0.75,0.75,1,1,1,均匀有理b样条，阶数为2，节向量个数是十二，那么就是9个控制点，八个控制点在一个举行平面，一个位于圆锥点顶点，整的的形状就是把圆锥包起来的一个棱锥形状。&lt;/div&gt;&lt;div&gt;&lt;br&gt;&lt;/div&gt;&lt;div&gt;&lt;br&gt;&lt;/div&gt;" style="text;html=1;align=center;verticalAlign=middle;whiteSpace=wrap;rounded=0;" parent="1" vertex="1">
          <mxGeometry x="380" y="310" width="390" height="230" as="geometry" />
        </mxCell>
      </root>
    </mxGraphModel>
  </diagram>
</mxfile>
